<svg xmlns="http://www.w3.org/2000/svg" width="512" height="512" viewBox="0 0 512 512" version="1.1">
	<path d="M 291.109 40.517 C 278.955 43.931, 271.036 49.506, 266.123 58.109 C 264.172 61.525, 261.537 64.146, 257.303 66.882 C 249.779 71.746, 246.188 76.352, 245.391 82.162 C 244.506 88.620, 247.300 93.517, 254.917 98.860 L 261 103.128 261 119.982 C 261 129.252, 260.727 137.548, 260.393 138.418 C 259.439 140.903, 257.689 140.267, 255.291 136.564 C 250.287 128.837, 235.937 122.393, 225.752 123.299 C 209.229 124.768, 192.696 140.774, 192.628 155.366 C 192.590 163.735, 194.208 176.278, 195.137 174.813 C 195.595 174.091, 195.981 169.225, 195.994 164 C 196.015 156.182, 196.432 153.613, 198.351 149.493 C 201.190 143.396, 206.370 138.686, 214.430 134.873 C 219.421 132.512, 221.824 132.001, 227.946 132.001 L 235.392 132 231.946 135.554 L 228.500 139.108 228.500 152.933 L 228.500 166.757 221.775 167.383 C 209.710 168.507, 199.678 173.266, 192.161 181.434 C 188.277 185.654, 187.648 185.997, 186.161 184.703 C 185.247 183.908, 180.675 181.062, 176 178.379 L 167.500 173.500 151 173.527 C 124.375 173.570, 105.084 179.055, 86 192.006 C 79.242 196.592, 61.629 210.874, 61.152 212.154 C 60.835 213.005, 63.156 212.731, 68.375 211.300 C 72.387 210.200, 68.613 213.073, 59.725 217.885 C 54.651 220.632, 48.442 224.369, 45.926 226.190 C 38.935 231.250, 17 250.313, 17 251.329 C 17 251.827, 19.006 251.926, 21.500 251.552 C 23.975 251.181, 26.079 251.018, 26.174 251.189 C 26.270 251.360, 26.608 268.825, 26.924 290 L 27.500 328.500 30.777 328.500 C 34.309 328.500, 35.960 330.164, 35.985 333.750 C 35.996 335.417, 35.417 336.004, 33.750 336.014 C 32.513 336.021, 30.478 336.301, 29.229 336.636 C 25.718 337.576, 28.435 340, 33 340 C 37.657 340, 38.844 341.375, 39.563 347.601 C 40.668 357.169, 40.660 357.154, 44.518 356.431 C 47.185 355.930, 48.120 356.150, 48.596 357.391 C 49.034 358.532, 50.492 359, 53.607 359 C 58.383 359, 58.530 359.142, 56.905 362.178 C 55.985 363.897, 55.184 364.125, 51.905 363.601 C 49.526 363.220, 48 363.372, 48 363.988 C 48 364.545, 48.154 365, 48.342 365 C 48.530 365, 58.993 366.976, 71.592 369.392 C 101.146 375.058, 102 375.201, 102 374.492 C 102 374.163, 100.875 372.238, 99.500 370.215 C 98.125 368.191, 97 366.190, 97 365.768 C 97 363.970, 100.187 365.227, 102.658 368 C 105.585 371.286, 108.445 371.888, 109.393 369.418 C 110.229 367.240, 110.211 367.204, 108.358 367.361 C 107.454 367.438, 106.517 366.938, 106.274 366.250 C 105.968 365.381, 107.085 365, 109.936 365 C 113.904 365, 114.017 365.090, 113.381 367.750 C 113.019 369.262, 112.336 371.258, 111.862 372.184 C 109.866 376.085, 110.413 376.338, 129.645 380.395 L 140.790 382.747 138.492 378.123 C 137.228 375.581, 134.816 369.450, 133.133 364.500 C 131.450 359.550, 129.335 353.475, 128.434 351 C 126.936 346.884, 126.930 346.073, 128.364 341.500 C 129.226 338.750, 130.639 333.894, 131.505 330.709 C 132.524 326.960, 134.342 323.521, 136.656 320.959 C 139.795 317.485, 140.773 317, 144.648 317 C 147.077 317, 150.585 317.635, 152.444 318.412 C 155.431 319.660, 156.966 319.603, 165.662 317.915 C 176.585 315.796, 178.874 315.586, 177.450 316.831 C 176.928 317.288, 172.136 318.456, 166.802 319.427 L 157.105 321.192 158.909 325.846 C 161.727 333.114, 162.243 336, 160.726 336 C 160.005 336, 158.894 334.053, 158.257 331.673 C 156.479 325.023, 154.370 323.121, 148 322.422 C 140.128 321.559, 137.519 322.897, 134.307 329.447 C 132.824 332.470, 131.861 335.194, 132.167 335.500 C 132.472 335.806, 133.993 335.573, 135.546 334.982 C 137.099 334.392, 141.887 333.638, 146.185 333.306 C 153.021 332.779, 154 332.910, 154 334.352 C 154 335.656, 152.989 336, 149.159 336 C 139.365 336, 130 340.636, 130 345.483 C 130 349.793, 132.231 351.253, 139.434 351.655 C 146.893 352.072, 150 353.249, 150 355.661 C 150 357.024, 148.790 357.187, 141.500 356.805 C 136.825 356.559, 133 356.495, 133 356.661 C 133 356.828, 134.725 360.684, 136.834 365.232 C 140.780 373.742, 145.255 380, 147.393 380 C 149.215 380, 154.509 374.051, 156.850 369.372 C 157.987 367.101, 159.720 362.151, 160.703 358.372 C 163.013 349.483, 163.772 353.861, 161.568 363.364 C 160.039 369.955, 154.980 381.276, 153.022 382.486 C 151.612 383.358, 151.740 384.646, 153.250 384.768 C 153.938 384.824, 157.673 385.182, 161.551 385.563 C 171.463 386.538, 176.647 383.622, 179.438 375.502 L 180.686 371.872 182.446 374.559 C 184.487 377.673, 183.806 379.577, 178.426 385.801 L 175.271 389.451 189.327 392.201 C 197.058 393.713, 203.551 394.782, 203.757 394.576 C 203.963 394.371, 202.709 391.682, 200.970 388.601 C 199.232 385.520, 198.198 383, 198.672 383 C 199.147 383, 201.301 384.199, 203.458 385.665 C 208.399 389.023, 215.434 389.861, 219.785 387.611 C 221.499 386.725, 223.148 386, 223.450 386 C 224.636 386, 223.890 388.908, 221.603 393.211 L 219.206 397.719 233.353 399.943 C 241.134 401.166, 251.548 402.994, 256.496 404.004 C 261.443 405.015, 265.675 405.658, 265.900 405.434 C 266.124 405.209, 264.852 401.867, 263.073 398.007 C 261.293 394.146, 260.008 390.477, 260.216 389.852 C 260.424 389.227, 262.748 390.991, 265.381 393.771 C 273.379 402.219, 277.852 402.839, 284.896 396.475 C 288.416 393.295, 294 391.657, 294 393.804 C 294 395.111, 288.012 404.272, 285.212 407.250 L 282.626 410 286.563 410.020 C 288.728 410.032, 301.975 412.006, 316 414.409 C 423.810 432.877, 461.415 439.281, 474 441.313 L 488.500 443.655 488.801 437.711 C 488.966 434.443, 488.919 431.586, 488.696 431.363 C 487.884 430.551, 478.118 428.968, 369 411.969 C 354.425 409.698, 342.119 407.473, 341.654 407.024 C 340.572 405.981, 343.550 405.501, 371.718 402.177 L 394.937 399.438 407.718 402.171 C 414.748 403.675, 420.964 404.926, 421.530 404.952 C 422.097 404.979, 424.347 402.527, 426.530 399.505 C 430.617 393.849, 431.761 393.161, 433.761 395.161 C 434.641 396.041, 437.265 394.903, 444.642 390.440 L 454.363 384.559 469.764 383.834 C 489.463 382.906, 491.389 381.639, 484.157 374.365 C 473.617 363.766, 452 338.144, 452 336.251 C 452 335.685, 453.559 334.930, 455.465 334.573 C 457.371 334.215, 459.168 333.537, 459.459 333.066 C 459.750 332.595, 458.163 329.478, 455.933 326.138 C 452.265 320.645, 451.561 320.077, 448.548 320.191 C 446.497 320.268, 444.163 319.487, 442.474 318.158 C 440.024 316.231, 438.486 315.998, 428.115 315.985 C 421.727 315.976, 416.049 315.639, 415.498 315.235 C 414.895 314.793, 414.631 310.028, 414.836 303.273 L 415.176 292.046 420.088 291.394 C 424.950 290.749, 425 290.705, 424.986 287.121 C 424.955 278.816, 425.266 279, 411.276 279 C 401.652 279, 398.914 278.713, 399.346 277.750 C 407.851 258.751, 411.931 243.363, 412.670 227.500 C 414.553 187.059, 397.057 152.694, 367.292 138.374 C 361.906 135.783, 357.451 133.627, 357.391 133.582 C 357.331 133.537, 357.007 131.397, 356.671 128.828 L 356.060 124.155 360.446 121.585 C 378.012 111.290, 379.737 85.249, 363.912 69.266 C 357.405 62.694, 352.023 60.500, 342.409 60.500 L 334.318 60.500 332.607 56.365 C 330.301 50.790, 324.631 45.250, 318.156 42.246 C 311.326 39.078, 299.031 38.292, 291.109 40.517 M 285.500 50.816 C 281.578 52.189, 270.336 59.044, 272.100 58.987 C 272.320 58.980, 275.284 58.101, 278.687 57.035 C 282.089 55.968, 288.365 54.778, 292.632 54.392 C 297.932 53.912, 299.739 53.448, 298.335 52.928 C 297.204 52.510, 296.005 51.455, 295.670 50.584 C 294.890 48.551, 291.766 48.622, 285.500 50.816 M 283.500 68.363 C 275.450 70.480, 271.679 72.463, 268.234 76.386 C 265.124 79.928, 265 80.400, 265 88.685 L 265 97.300 267.987 93.177 C 271.716 88.029, 277.472 85, 283.526 85 C 292.142 85, 292 84.673, 292 104.535 C 292 121.333, 291.924 122, 290 122 C 288.083 122, 288 121.333, 288 106.019 L 288 90.038 285.363 89.376 C 283.912 89.012, 281.100 89.116, 279.113 89.607 L 275.500 90.500 275.227 107.649 L 274.954 124.798 271.544 127.399 C 269.668 128.830, 267.847 130, 267.498 130 C 267.148 130, 267.183 122.575, 267.575 113.500 C 267.966 104.425, 268.009 97, 267.669 97 C 267.329 97, 266.365 98.328, 265.526 99.950 C 264.356 102.213, 264 106.423, 264 118.016 C 264 126.618, 263.550 133.973, 262.955 135.085 C 262.279 136.346, 263.784 135.612, 267.205 133.011 C 276.233 126.145, 288.530 122.672, 296.257 124.805 C 299.592 125.726, 299.889 125.660, 299.099 124.167 C 297.746 121.611, 295.996 108.858, 296.032 101.808 C 296.079 92.316, 298.537 75.795, 300.453 72.091 C 301.385 70.289, 301.953 68.620, 301.716 68.383 C 300.543 67.209, 287.937 67.195, 283.500 68.363 M 318.645 72.588 C 310.390 77.396, 305.484 81.485, 302.808 85.788 C 300.727 89.135, 300.500 90.698, 300.500 101.665 C 300.500 108.356, 300.849 114.181, 301.276 114.608 C 301.703 115.036, 306.011 113.446, 310.849 111.074 L 319.645 106.763 319.572 94.131 C 319.506 82.565, 319.726 80.973, 322.180 75.250 C 323.654 71.813, 324.779 69.040, 324.680 69.089 C 324.581 69.139, 321.865 70.713, 318.645 72.588 M 324.992 77.220 C 322.172 83.750, 321.273 94.333, 323.011 100.540 C 324.661 106.433, 331.725 114.317, 338.392 117.708 C 349.260 123.234, 362.475 119.717, 367.524 109.954 C 369.950 105.263, 371.091 98.133, 370.291 92.665 L 369.535 87.500 368.977 95.105 C 367.966 108.890, 361.245 117.355, 350.280 118.653 C 345.884 119.174, 344.213 118.850, 339.562 116.574 C 333.045 113.386, 327.710 107.532, 325.554 101.205 C 323.452 95.037, 323.632 84.754, 325.960 78.011 C 328.414 70.902, 327.901 70.483, 324.992 77.220 M 336.841 75.467 C 330.947 78.796, 327.210 89.090, 328.951 97.207 C 330.382 103.878, 333.361 107.830, 338.760 110.218 C 344.353 112.692, 348.802 111.990, 353.461 107.900 C 360.635 101.601, 360.489 87.189, 353.167 78.938 C 349.908 75.266, 348.837 74.701, 344.475 74.357 C 341.248 74.103, 338.566 74.493, 336.841 75.467 M 336.209 78.566 C 330.769 82.376, 328.376 93.177, 331.379 100.364 C 335.361 109.894, 349.114 110.849, 354.364 101.960 C 356.729 97.957, 356.535 88.390, 354.005 84.241 C 350.086 77.813, 341.289 75.008, 336.209 78.566 M 337.521 85.279 C 333.538 89.262, 332.925 93.491, 335.452 99.538 C 338.822 107.605, 349.343 105.662, 351.871 96.507 C 353.744 89.721, 350.441 83.638, 344.205 82.391 C 341.498 81.850, 340.534 82.266, 337.521 85.279 M 337.560 91.773 C 336.427 92.906, 337.043 97.079, 338.422 97.608 C 340.030 98.226, 344 96.396, 344 95.038 C 344 93.907, 338.311 91.023, 337.560 91.773 M 311.446 123.125 C 308.726 124.844, 306.169 126.756, 305.765 127.375 C 304.960 128.608, 304.714 135, 305.471 135 C 305.731 135, 308.431 133.900, 311.471 132.555 L 317 130.110 317 125.055 C 317 122.275, 316.863 120, 316.696 120 C 316.528 120, 314.166 121.406, 311.446 123.125 M 275.468 132.397 C 269.363 134.310, 262.622 138.602, 258.217 143.381 C 253.278 148.739, 250.535 152.868, 251.365 153.698 C 251.714 154.047, 252 153.845, 252 153.248 C 252 152.651, 253.688 151.152, 255.750 149.917 C 257.813 148.682, 262.459 145.738, 266.075 143.375 C 272.396 139.245, 288.259 133.107, 293.148 132.900 L 295.500 132.801 293 132 C 289.181 130.777, 279.973 130.986, 275.468 132.397 M 302.287 139.443 C 297.770 141.869, 292.145 145.158, 289.787 146.754 C 287.429 148.349, 281.572 152.007, 276.771 154.882 C 263.039 163.105, 257.446 168.807, 252.350 179.776 C 246.960 191.379, 245.213 198.077, 243.897 212.172 C 242.181 230.546, 245.377 251.310, 251.272 260.087 C 252.977 262.626, 254.411 263.582, 256.872 263.820 C 259.679 264.092, 260.094 263.865, 259.616 262.320 C 256.077 250.879, 254.665 241.538, 254.657 229.500 C 254.643 210.279, 258.171 195.548, 266.990 178 C 276.729 158.622, 286.109 148.932, 304.471 139.279 C 308.887 136.958, 312.050 135.053, 311.500 135.046 C 310.950 135.039, 306.804 137.018, 302.287 139.443 M 210.907 138.799 L 207.500 140.500 207.219 153.419 C 207.064 160.524, 207.310 166.710, 207.765 167.165 C 208.220 167.620, 210.596 166.981, 213.046 165.746 L 217.500 163.500 217.780 151.301 C 218.035 140.238, 217.886 139.010, 216.188 138.100 C 214.821 137.369, 213.393 137.558, 210.907 138.799 M 329.568 153.532 C 319.588 156.271, 311.886 161.080, 302.390 170.502 C 294.874 177.959, 292.556 181.035, 289.149 188.075 C 279.112 208.810, 277.303 233.933, 284.429 253.593 C 287.443 261.908, 294.951 272.900, 301.808 279.039 C 320.334 295.624, 347.774 296.928, 367.290 282.150 C 383.884 269.585, 393.609 249.120, 394.715 224.434 C 396.546 183.578, 372.611 151.615, 340.540 152.089 C 337.218 152.139, 332.281 152.788, 329.568 153.532 M 246.333 171.513 C 241.902 174.544, 234.809 179.983, 230.572 183.599 C 224.277 188.970, 222.899 190.660, 223.040 192.836 C 223.337 197.440, 223.064 198, 220.520 198 C 218.626 198, 217.549 198.963, 215.959 202.081 C 212.334 209.185, 207.549 232, 209.683 232 C 210.930 232, 227.904 226.493, 232.750 224.517 C 236.840 222.848, 237.007 222.608, 237.180 218.141 C 237.321 214.513, 237.508 215.137, 238.037 221 L 238.713 228.500 238.823 218.500 C 238.883 213, 239.362 206.250, 239.886 203.500 C 241.225 196.477, 242.819 189.636, 243.573 187.670 C 244.002 186.553, 243.701 186, 242.666 186 C 238.868 186, 240.099 181.062, 244.468 178.769 C 246.371 177.770, 255.770 166, 254.664 166 C 254.514 166, 250.765 168.481, 246.333 171.513 M 212.527 175.114 C 204.621 176.265, 196.854 180.184, 192.579 185.178 C 189.368 188.930, 187.121 194.454, 188.319 195.653 C 188.600 195.933, 191.455 194.020, 194.664 191.402 C 197.874 188.784, 204.325 184.179, 209 181.168 C 216.809 176.139, 220.097 173.811, 218.950 174.122 C 218.703 174.189, 215.812 174.635, 212.527 175.114 M 337.286 178.390 C 305.451 188.796, 296.362 238.603, 321.971 262.313 C 329.528 269.309, 335.400 271.430, 345.434 270.786 C 374.234 268.938, 391.030 230.865, 376.541 200.270 C 368.200 182.656, 351.949 173.598, 337.286 178.390 M 336.994 184.876 C 324.285 189.037, 316.135 201.699, 314.381 220.008 C 312.275 241.989, 327.356 262.120, 344.934 260.794 C 352.090 260.254, 357.356 257.697, 363.107 251.970 C 370.361 244.745, 372.507 238.217, 372.468 223.500 C 372.431 209.662, 370.594 203.460, 364.100 195.248 C 357.631 187.068, 345.027 182.246, 336.994 184.876 M 220.255 186.250 C 219.711 186.938, 218.731 188.625, 218.078 190 C 216.933 192.409, 216.949 192.427, 218.518 190.500 C 220.457 188.118, 222.237 185, 221.658 185 C 221.431 185, 220.799 185.563, 220.255 186.250 M 205 196.612 C 200.875 199.050, 193.104 203.293, 187.732 206.041 C 175.672 212.209, 171.219 216.516, 167.542 225.573 C 165.280 231.142, 164.707 234.166, 164.615 241 C 164.506 249.046, 164.610 249.485, 166.566 249.218 C 169.493 248.819, 198.186 238.214, 199.269 237.131 C 199.762 236.638, 200.529 232.019, 200.973 226.867 C 201.416 221.715, 202.314 215.523, 202.967 213.107 C 204.238 208.403, 208.453 199.248, 211.417 194.750 C 212.414 193.238, 213.066 192.040, 212.865 192.089 C 212.664 192.138, 209.125 194.173, 205 196.612 M 133.858 195.712 C 133.334 198.629, 134.381 223.790, 135.077 225 C 135.662 226.017, 135.949 225.126, 135.970 222.229 C 136.005 217.284, 137.030 216.553, 146.574 214.670 L 152.500 213.500 152.500 204.500 L 152.500 195.500 143.250 195.212 C 138.162 195.054, 133.936 195.279, 133.858 195.712 M 210.461 200.642 C 204.003 215.684, 202.251 226.309, 203.919 240.312 C 205.168 250.793, 207.794 258.132, 212.038 263 L 214.217 265.500 212.042 262 C 208.438 256.199, 207.264 252.867, 205.966 244.754 C 204.005 232.498, 205.090 220.380, 209.258 208 C 212.858 197.304, 213.451 193.676, 210.461 200.642 M 135 200.315 C 135 201.541, 136.651 201.915, 143.250 202.185 C 147.787 202.370, 151.695 202.397, 151.933 202.244 C 152.172 202.092, 151.820 201.420, 151.151 200.751 C 150.483 200.083, 146.575 199.366, 142.468 199.159 C 136.261 198.845, 135 199.040, 135 200.315 M 99.993 219.250 C 99.989 228.738, 99.733 239.650, 99.424 243.500 C 98.904 249.972, 98.980 250.354, 100.431 248.559 C 101.752 246.925, 102 243.086, 102 224.309 C 102 210.103, 101.637 202, 101 202 C 100.372 202, 99.997 208.421, 99.993 219.250 M 172.037 208.611 C 170.293 210.597, 167.910 214.191, 166.741 216.597 C 165.112 219.948, 163.783 221.237, 161.058 222.106 C 153.401 224.548, 145.782 229.478, 139.828 235.843 C 133.176 242.954, 129.888 249.142, 127.724 258.624 L 126.326 264.748 140.413 259.985 C 159.458 253.544, 158 254.365, 158 250.081 C 158 241.004, 164.665 221.962, 171.467 211.606 C 173.853 207.972, 175.671 205, 175.506 205 C 175.342 205, 173.780 206.625, 172.037 208.611 M 110.630 208.704 C 109.435 209.898, 109.919 232, 111.140 232 C 111.767 232, 115.835 230.821, 120.180 229.380 L 128.080 226.759 127.790 219.131 L 127.500 211.503 124 210.392 C 119.352 208.916, 111.419 207.915, 110.630 208.704 M 90.667 210.667 C 90.300 211.033, 90 219.808, 90 230.167 L 90 249 92.500 249 L 95 249 95 229.500 C 95 211.258, 94.882 210, 93.167 210 C 92.158 210, 91.033 210.300, 90.667 210.667 M 77.667 217.667 C 77.300 218.033, 77 227.081, 77 237.774 C 77 255.090, 77.173 257.148, 78.582 256.607 C 79.452 256.273, 80.352 256, 80.582 256 C 80.812 256, 81 247.225, 81 236.500 C 81 220.917, 80.732 217, 79.667 217 C 78.933 217, 78.033 217.300, 77.667 217.667 M 65 250.073 C 65 266.747, 65.135 268.121, 66.750 267.810 C 68.326 267.508, 68.527 265.708, 68.773 249.737 C 69.038 232.509, 68.988 232, 67.023 232 C 65.067 232, 65 232.598, 65 250.073 M 57 252.500 C 57 268.278, 57.221 271, 58.500 271 C 59.779 271, 60 268.278, 60 252.500 C 60 236.722, 59.779 234, 58.500 234 C 57.221 234, 57 236.722, 57 252.500 M 52.417 253.500 C 52.418 263.950, 52.566 268.089, 52.746 262.698 C 52.926 257.307, 52.925 248.757, 52.744 243.698 C 52.563 238.639, 52.416 243.050, 52.417 253.500 M 43.513 240.979 C 43.108 241.635, 42.535 250.683, 42.240 261.086 C 41.771 277.684, 41.894 280, 43.246 280 C 45.708 280, 46.001 277.824, 45.985 259.668 C 45.970 243.406, 45.273 238.132, 43.513 240.979 M 159.442 246.539 C 158.919 250.025, 159.137 251.494, 160.381 252.868 C 161.459 254.060, 162 256.491, 162 260.149 C 162 267.270, 166.010 275.352, 171 278.290 L 174.500 280.351 171.301 276.925 C 169.542 275.041, 167.150 271.343, 165.985 268.707 C 164.171 264.600, 162.076 251.686, 162.018 244.250 C 161.986 240.234, 160.142 241.873, 159.442 246.539 M 35.667 249.667 C 34.558 250.776, 34.880 283, 36 283 C 36.582 283, 37 279.718, 37 275.154 C 37 270.838, 37.292 263.188, 37.650 258.154 C 38.254 249.637, 37.770 247.564, 35.667 249.667 M 91.250 252.768 C 89.630 253.035, 89 253.825, 89 255.587 C 89 257.580, 87.933 258.546, 83.250 260.790 L 77.500 263.546 77.230 285.273 C 77.082 297.223, 77.116 307, 77.305 307 C 77.495 307, 80.957 305.875, 85 304.500 C 93.688 301.545, 93 301.629, 93 303.525 C 93 305.278, 89.732 306.704, 82.250 308.215 C 77.006 309.275, 77 309.281, 77 313.138 C 77 315.262, 77.158 317, 77.351 317 C 77.544 317, 79.006 316.580, 80.601 316.068 C 82.195 315.555, 86.088 314.417, 89.250 313.540 L 95 311.944 95 282.531 C 95 266.354, 94.662 252.956, 94.250 252.758 C 93.838 252.560, 92.487 252.564, 91.250 252.768 M 85.500 262.399 L 81.500 264.515 81.227 282.758 C 80.962 300.491, 81.011 301, 82.977 301 C 84.930 301, 85 300.398, 85 283.526 L 85 266.051 88 264.500 C 90.920 262.990, 91.773 261.549, 90.250 260.700 C 89.838 260.470, 87.700 261.235, 85.500 262.399 M 54 277.039 C 33.848 285.840, 32.932 286.266, 33.314 286.648 C 33.521 286.854, 38.147 285.069, 43.595 282.680 C 49.043 280.292, 56.425 277.292, 60 276.013 C 66.719 273.611, 69.526 271.994, 66.950 272.008 C 66.153 272.013, 60.325 274.277, 54 277.039 M 219.153 276.039 C 204.089 279.053, 203 279.561, 203 283.578 C 203 287.599, 203.903 287.781, 212.594 285.518 C 215.724 284.702, 222.046 283.509, 226.642 282.866 C 231.239 282.223, 235 281.352, 235 280.930 C 235 280.509, 235.251 279.510, 235.558 278.711 C 236.307 276.757, 233.378 273.980, 230.679 274.084 C 229.480 274.131, 224.294 275.010, 219.153 276.039 M 49 283.373 L 31.500 290.678 31.221 303.839 C 31.004 314.090, 31.228 317, 32.237 317 C 33.747 317, 59.965 310.475, 64.750 308.909 L 68 307.845 68 291.922 C 68 283.165, 67.662 276.015, 67.250 276.034 C 66.838 276.053, 58.625 279.356, 49 283.373 M 215 292.330 L 210.500 293.500 210.204 301.469 C 210.025 306.291, 209.432 309.741, 208.704 310.204 C 206.894 311.354, 216.188 311.153, 221.951 309.917 L 227 308.834 227 299.917 L 227 291 223.250 291.080 C 221.188 291.125, 217.475 291.687, 215 292.330 M 176.500 296.135 C 174.850 296.665, 168.628 298.161, 162.674 299.459 C 156.720 300.757, 151.582 302.084, 151.257 302.409 C 150.932 302.734, 153.391 303, 156.721 303 C 162.585 303, 175.619 299.829, 183 296.606 L 186.500 295.078 183 295.125 C 181.075 295.151, 178.150 295.605, 176.500 296.135 M 174.290 306.942 C 158.597 311.435, 155.325 312.710, 154.594 314.615 C 154.165 315.734, 154.449 315.830, 155.898 315.054 C 156.918 314.509, 162.420 312.959, 168.126 311.611 C 179.310 308.968, 189.609 305.441, 190.540 303.935 C 191.512 302.362, 188.052 303.002, 174.290 306.942 M 188 312.500 C 188 313.325, 188.450 314, 189 314 C 189.550 314, 190 313.325, 190 312.500 C 190 311.675, 189.550 311, 189 311 C 188.450 311, 188 311.675, 188 312.500 M 60.500 314.066 C 56.650 315.103, 48.621 316.934, 42.658 318.135 C 32.836 320.112, 29.426 321.760, 31.293 323.627 C 31.950 324.284, 50.577 320.689, 61.250 317.846 C 67.456 316.192, 69 315.404, 69 313.890 C 69 311.673, 69.415 311.665, 60.500 314.066 M 218.560 317.534 C 215.843 318.280, 207.583 319.434, 200.203 320.099 C 184.805 321.488, 183.380 322.211, 178.542 331.100 C 174.785 338.004, 173.940 348.291, 176.497 355.991 C 179.377 364.661, 180.051 365, 194.404 365 L 206.808 365 204.755 359.750 C 203.295 356.018, 202.700 352.187, 202.696 346.500 C 202.685 329.632, 207.078 323.164, 222.500 317.345 C 226.612 315.793, 224.542 315.893, 218.560 317.534 M 448.872 323.461 C 448.444 323.889, 386.596 325.187, 288.833 326.821 C 266.466 327.194, 247.867 327.799, 247.502 328.164 C 247.137 328.530, 247.318 329.726, 247.906 330.823 C 249.577 333.946, 257.895 334.195, 346 333.759 C 424.924 333.369, 455 332.257, 455 329.730 C 455 328.448, 451.032 323, 450.099 323 C 449.678 323, 449.126 323.208, 448.872 323.461 M 140.252 327.500 C 140.263 329.700, 140.468 330.482, 140.707 329.238 C 140.946 327.994, 140.937 326.194, 140.687 325.238 C 140.437 324.282, 140.241 325.300, 140.252 327.500 M 144.252 327.500 C 144.263 329.700, 144.468 330.482, 144.707 329.238 C 144.946 327.994, 144.937 326.194, 144.687 325.238 C 144.437 324.282, 144.241 325.300, 144.252 327.500 M 163.729 324.730 C 161.633 324.948, 160.224 325.553, 160.557 326.092 C 161.276 327.256, 179.045 326.170, 180.450 324.875 C 181.384 324.015, 171.409 323.928, 163.729 324.730 M 149.232 328 C 149.232 329.925, 149.438 330.712, 149.689 329.750 C 149.941 328.788, 149.941 327.212, 149.689 326.250 C 149.438 325.288, 149.232 326.075, 149.232 328 M 211.402 327.509 C 208.301 332.242, 207.088 337.511, 207.044 346.434 C 206.998 355.744, 208.940 362.107, 212.761 365.169 C 213.871 366.059, 213.709 365.482, 212.270 363.429 C 207.117 356.074, 206.619 339.813, 211.250 330.136 C 213.925 324.546, 213.982 323.572, 211.402 327.509 M 136.583 328.866 C 136.152 329.563, 136.070 330.403, 136.400 330.733 C 137.295 331.628, 138.271 330.312, 137.787 328.862 C 137.449 327.846, 137.213 327.846, 136.583 328.866 M 84.289 332.690 C 83.932 333.620, 84.059 334.527, 84.570 334.706 C 88.669 336.141, 90.596 337.933, 91.366 341.029 C 92.568 345.855, 90.197 351.303, 86.106 353.114 C 83.814 354.128, 83.004 355.145, 83.015 356.994 C 83.045 361.826, 84.169 362.298, 90.087 359.966 C 93.061 358.793, 96.128 357.309, 96.901 356.667 C 97.675 356.025, 98.576 355.681, 98.904 355.903 C 99.232 356.125, 100.531 354.550, 101.791 352.403 C 105.897 345.409, 103.173 336.899, 95.500 332.745 C 94.400 332.150, 95.138 333.207, 97.139 335.095 C 99.175 337.015, 101.317 340.326, 102.002 342.613 C 103.086 346.230, 102.983 347.251, 101.101 351.504 C 99.932 354.147, 98.720 356.053, 98.407 355.740 C 98.094 355.427, 98.324 354.262, 98.919 353.151 C 99.514 352.040, 100 348.715, 100 345.762 C 100 341.003, 99.630 340.041, 96.750 337.308 C 93.481 334.206, 88.027 331, 86.018 331 C 85.424 331, 84.645 331.761, 84.289 332.690 M 53.269 333.693 C 54.242 333.947, 55.592 333.930, 56.269 333.656 C 56.946 333.382, 56.150 333.175, 54.500 333.195 C 52.850 333.215, 52.296 333.439, 53.269 333.693 M 73.015 333.750 C 73.024 334.163, 73.467 335.175, 74 336 C 74.784 337.213, 74.972 337.069, 74.985 335.250 C 74.993 334.012, 74.550 333, 74 333 C 73.450 333, 73.007 333.337, 73.015 333.750 M 50.250 340.480 C 47.359 342.579, 47.306 346.994, 50.113 351.988 C 52.022 355.383, 52.725 355.808, 57.363 356.365 C 66.312 357.441, 69.034 356.957, 62.287 355.491 C 58.870 354.748, 55.270 353.688, 54.287 353.135 C 52.488 352.122, 54.007 351.239, 66.250 346.179 C 67.763 345.554, 69 344.635, 69 344.136 C 69 340.369, 54.339 337.510, 50.250 340.480 M 83.667 339.667 C 83.300 340.033, 83 342.733, 83 345.667 C 83 350.301, 83.257 351, 84.965 351 C 87.319 351, 89 348.195, 89 344.266 C 89 340.262, 85.817 337.517, 83.667 339.667 M 152.750 339.746 C 137.127 340.269, 141.157 342, 158 342 C 170.667 342, 173 341.767, 173 340.500 C 173 339.331, 171.843 339.046, 167.750 339.209 C 164.863 339.324, 158.113 339.566, 152.750 339.746 M 242.622 341.463 C 236.332 348.250, 236.606 363.427, 243.161 371.379 C 244.803 373.371, 246.858 375, 247.728 375 C 249.154 375, 249.158 374.828, 247.771 373.250 C 246.925 372.288, 245.205 369.475, 243.948 367 C 239.487 358.212, 241.815 344.243, 248.188 341.563 C 249.753 340.905, 250.726 340.059, 250.350 339.683 C 248.859 338.193, 244.783 339.131, 242.622 341.463 M 136.635 342.073 C 133.300 344.695, 133.245 347.699, 136.504 349.184 C 137.882 349.811, 139.168 350.139, 139.363 349.912 C 140.205 348.935, 140.883 340, 140.116 340 C 139.650 340, 138.084 340.933, 136.635 342.073 M 50.200 342.200 C 48.507 343.893, 48.708 347.951, 50.520 348.646 C 52.199 349.290, 63.686 345.317, 64.649 343.758 C 64.983 343.218, 64.636 342.384, 63.878 341.904 C 61.819 340.599, 51.579 340.821, 50.200 342.200 M 280.451 354.750 C 275.614 361.212, 269.034 369.689, 265.828 373.587 C 262.623 377.485, 260 380.973, 260 381.337 C 260 381.702, 260.843 382, 261.874 382 C 262.905 382, 265.605 382.655, 267.874 383.456 C 270.148 384.258, 272 384.482, 272 383.956 C 272 383.430, 274.236 383, 276.969 383 C 280.797 383, 281.815 382.681, 281.404 381.612 C 281.111 380.848, 284.479 373.086, 288.887 364.362 C 298.153 346.027, 299.032 343.655, 296.370 344.167 C 294.425 344.542, 269.737 380.765, 270.540 382.065 C 270.795 382.477, 270.095 382.576, 268.986 382.286 C 267.876 381.996, 266.734 381.379, 266.447 380.915 C 266.161 380.451, 268.138 377.018, 270.841 373.286 C 280.527 359.913, 290.998 343, 289.591 343 C 289.400 343, 285.287 348.288, 280.451 354.750 M 302.473 346.750 C 297.894 355.534, 284 383.241, 284 383.588 C 284 383.814, 286.648 384, 289.883 384 C 295.158 384, 295.823 383.767, 296.306 381.750 C 296.603 380.512, 299.356 372.308, 302.423 363.517 C 305.490 354.726, 308 346.739, 308 345.767 C 308 342.917, 304.111 343.608, 302.473 346.750 M 430.001 344.621 C 430 345.923, 437.686 363.455, 442.044 372.087 C 443.816 375.598, 445.679 378, 446.629 378 C 448.042 378, 448.015 377.676, 446.401 375.250 C 445.396 373.738, 441.295 365.975, 437.288 358 C 433.281 350.025, 430.002 344.004, 430.001 344.621 M 313.492 346.250 C 313.247 346.938, 310.735 354.250, 307.909 362.500 C 305.083 370.750, 302.114 378.779, 301.312 380.343 C 300.509 381.907, 300.035 383.368, 300.257 383.591 C 301.148 384.481, 313 385.227, 313.005 384.392 C 313.008 383.902, 314.356 375.175, 316 365 C 317.644 354.825, 318.992 346.163, 318.995 345.750 C 319.004 344.470, 313.963 344.928, 313.492 346.250 M 324.540 346.250 C 323.686 348.938, 319.080 384.414, 319.527 384.861 C 319.789 385.122, 322.546 385.547, 325.655 385.804 L 331.307 386.273 330.585 366.403 C 330.095 352.922, 329.483 346.292, 328.681 345.782 C 326.886 344.640, 324.983 344.855, 324.540 346.250 M 335.708 345.750 C 335.482 346.163, 335.645 353.700, 336.070 362.500 C 336.496 371.300, 336.879 380.333, 336.922 382.573 L 337 386.647 343.192 387.798 C 346.597 388.432, 349.477 388.849, 349.591 388.725 C 349.758 388.544, 342.638 356.032, 340.508 347.250 C 339.986 345.099, 336.637 344.052, 335.708 345.750 M 439 345.779 C 439 346.207, 441.489 350.750, 444.531 355.874 C 447.573 360.998, 451.192 367.418, 452.572 370.142 C 455.203 375.334, 456.900 376.636, 459.659 375.577 C 461.101 375.024, 460.981 374.586, 458.734 372.220 C 455.715 369.042, 441 347.192, 441 345.887 C 441 345.399, 440.550 345, 440 345 C 439.450 345, 439 345.350, 439 345.779 M 347.001 346.750 C 347.004 348.047, 351.943 368.021, 355.162 379.750 L 358.249 391 363.625 391 C 366.581 391, 369 390.564, 369 390.032 C 369 389.500, 364.884 379.375, 359.853 367.532 C 352.629 350.528, 350.316 346, 348.853 346 C 347.834 346, 347.001 346.337, 347.001 346.750 M 361.417 349.750 C 362.147 351.813, 365.688 360.025, 369.286 368 C 372.884 375.975, 376.540 384.239, 377.411 386.364 L 378.993 390.228 383.747 389.521 C 386.361 389.131, 388.631 388.687, 388.790 388.533 C 389.188 388.149, 366.189 349.927, 364.249 347.750 C 363.392 346.788, 362.105 346, 361.389 346 C 360.327 346, 360.332 346.686, 361.417 349.750 M 380.548 354.750 C 383.149 359.563, 388.872 369.289, 393.266 376.364 C 400.856 388.584, 401.527 389.352, 406.692 391.716 C 409.682 393.085, 412.271 394.047, 412.446 393.853 C 412.830 393.427, 392.820 364.421, 384.726 353.669 C 376.599 342.874, 374.432 343.434, 380.548 354.750 M 144.248 348.250 C 144.799 349.912, 151.358 350.835, 163.250 350.926 C 170.817 350.983, 173 350.697, 173 349.647 C 173 348.163, 163.231 347, 150.766 347 C 145.665 347, 143.943 347.330, 144.248 348.250 M 395.591 351.750 C 397.120 354.363, 402.402 362.545, 407.329 369.934 C 412.256 377.323, 417.425 385.562, 418.816 388.243 L 421.345 393.117 424.260 390.201 L 427.176 387.285 415.410 371.893 C 399.951 351.669, 395.982 347, 394.248 347 C 393.186 347, 393.536 348.240, 395.591 351.750 M 451.663 351.758 C 453.224 353.825, 457.807 359.930, 461.849 365.326 C 465.891 370.721, 469.443 374.890, 469.742 374.592 C 470.377 373.957, 470.950 374.757, 459.099 359.750 C 453.995 353.288, 449.596 348, 449.323 348 C 449.050 348, 450.103 349.691, 451.663 351.758 M 411.580 352.058 C 420.185 363.551, 423.467 367.833, 429.357 375.250 C 433.179 380.063, 436.687 384, 437.153 384 C 438.359 384, 413.882 352.641, 411.618 351.286 C 410.807 350.800, 410.796 351.012, 411.580 352.058 M 74.087 360.104 C 73.411 362.361, 72.637 364.781, 72.369 365.482 C 72.049 366.315, 73.197 366.994, 75.690 367.446 C 77.786 367.826, 80.513 368.380, 81.750 368.677 C 83.361 369.063, 84 368.769, 84 367.639 C 84 364.382, 78.267 356.159, 75.908 356.032 C 75.583 356.014, 74.763 357.847, 74.087 360.104 M 65.686 361.250 C 63.384 363.514, 62.460 365, 63.355 365 C 64.170 365, 65.503 365.256, 66.318 365.569 C 67.355 365.967, 68.154 365.065, 68.980 362.560 C 70.704 357.337, 69.964 357.043, 65.686 361.250 M 152.286 362.500 C 152.294 365.250, 152.488 366.256, 152.718 364.736 C 152.947 363.216, 152.941 360.966, 152.704 359.736 C 152.467 358.506, 152.279 359.750, 152.286 362.500 M 120.626 360.796 C 120.356 361.234, 119.488 364.390, 118.698 367.810 C 117.292 373.897, 117.306 374.037, 119.381 374.469 C 126.250 375.899, 131.501 376.832, 131.678 376.655 C 131.790 376.543, 130.446 372.753, 128.691 368.234 C 126.046 361.422, 125.125 360.014, 123.309 360.008 C 122.104 360.003, 120.897 360.358, 120.626 360.796 M 147.272 365 C 147.272 367.475, 147.467 368.488, 147.706 367.250 C 147.944 366.012, 147.944 363.988, 147.706 362.750 C 147.467 361.512, 147.272 362.525, 147.272 365 M 167.031 364.500 C 167.031 365.050, 167.467 366.175, 168 367 C 168.533 367.825, 168.969 368.050, 168.969 367.500 C 168.969 366.950, 168.533 365.825, 168 365 C 167.467 364.175, 167.031 363.950, 167.031 364.500 M 89.750 367.080 C 86.751 368.827, 87.818 370, 92.406 370 C 96.320 370, 96.754 369.777, 96.290 368 C 95.719 365.816, 92.659 365.386, 89.750 367.080 M 143.195 369.500 C 143.215 371.150, 143.439 371.704, 143.693 370.731 C 143.947 369.758, 143.930 368.408, 143.656 367.731 C 143.382 367.054, 143.175 367.850, 143.195 369.500 M 169 369.373 C 169 370.599, 172.928 377.837, 173.929 378.456 C 174.455 378.781, 173.710 376.899, 172.274 374.274 C 169.305 368.847, 169 368.391, 169 369.373 M 48.396 371.169 C 47.416 372.754, 43.140 371.688, 130 391.516 C 155.575 397.354, 192.271 405.671, 211.547 410 C 230.823 414.328, 267.723 422.662, 293.547 428.519 C 348.693 441.028, 484.171 470, 487.517 470 C 488.822 470, 489.041 468.855, 488.796 463.304 L 488.500 456.608 457 450.460 C 439.675 447.078, 415.375 442.410, 403 440.086 C 369.015 433.703, 283.712 417.134, 273.500 414.932 C 263.305 412.734, 174.898 395.169, 168 393.971 C 165.525 393.541, 158.775 392.047, 153 390.652 C 142.393 388.089, 58.301 371.469, 52.206 370.732 C 50.394 370.513, 48.680 370.709, 48.396 371.169 M 211.250 385.689 C 212.213 385.941, 213.787 385.941, 214.750 385.689 C 215.713 385.438, 214.925 385.232, 213 385.232 C 211.075 385.232, 210.287 385.438, 211.250 385.689 M 276 392 C 276 392.550, 277.125 393, 278.500 393 C 279.875 393, 281 392.550, 281 392 C 281 391.450, 279.875 391, 278.500 391 C 277.125 391, 276 391.450, 276 392" stroke="none" fill="black" fill-rule="evenodd"/>
</svg>